<svg xmlns="http://www.w3.org/2000/svg" xmlns:xlink="http://www.w3.org/1999/xlink" width="902.139" height="936.562" viewBox="0 0 902.139 936.562">
  <defs>
    <linearGradient id="linear-gradient" x1="-0.171" y1="1.174" x2="1.208" y2="-0.211" gradientUnits="objectBoundingBox">
      <stop offset="0" stop-color="#fee9dd"/>
      <stop offset="1" stop-color="#fe7526" stop-opacity="0.859"/>
    </linearGradient>
  </defs>
  <g id="Group_10060" data-name="Group 10060" transform="translate(217.5 137.371)">
    <circle id="Ellipse_662" data-name="Ellipse 662" cx="372.5" cy="372.5" r="372.5" transform="translate(-217 -136.871)" stroke="rgba(0,0,0,0)" stroke-width="1" opacity="0.257" fill="url(#linear-gradient)"/>
    <g id="Group_9941" data-name="Group 9941" transform="translate(-62.281 -23.774)">
      <g id="Group_9955" data-name="Group 9955" transform="translate(125.336 120.492)">
        <path id="Path_24004" data-name="Path 24004" d="M1181.241,705l-5.748,36.053-12.145-48.068s17.021-8.26,17.772-5.256S1181.241,705,1181.241,705Z" transform="translate(-951.376 -487.634)" fill="#07085b"/>
        <path id="Path_24005" data-name="Path 24005" d="M1289.761,932.694l-5.256,62.327,55-2.629-6.341-55.193Z" transform="translate(-1156.512 -637.729)" fill="#ffc5a3"/>
        <path id="Path_24006" data-name="Path 24006" d="M1341.293,963.449l-3.016-26.249-43.4-4.506-1.821,21.585C1301.684,962.876,1317.2,971.79,1341.293,963.449Z" transform="translate(-1161.626 -637.728)" fill="#ebae89"/>
        <g id="Group_9944" data-name="Group 9944" transform="translate(87.075 180.116)">
          <path id="Path_24007" data-name="Path 24007" d="M1152.771,811.373c-3.307,6.839-1.552,14.529,3.919,17.174s12.588-.754,15.9-7.594,1.553-14.529-3.919-17.174S1156.078,804.533,1152.771,811.373Z" transform="translate(-1026.455 -738.517)" fill="#ffc5a3"/>
          <path id="Path_24008" data-name="Path 24008" d="M1305.479,741.861a108.762,108.762,0,0,0,7.583-26.612c.288-1.784.679-3.546,1.1-5.3a58.769,58.769,0,1,0-115.776-17.521,12.7,12.7,0,0,0-11.361-1.613c-7.157,2.668-10.256,12.082-6.922,21.029s11.84,14.036,19,11.369a11.217,11.217,0,0,0,2.732-1.494c1.1,28.9,23.227,52.558,51.475,53.881a52.725,52.725,0,0,0,36.645-12.6C1296.346,758.3,1302.38,749.158,1305.479,741.861Z" transform="translate(-1178.764 -637.384)" fill="#ffc5a3"/>
          <path id="Path_24009" data-name="Path 24009" d="M1292.725,789.14c.113,3.368.139,6.654.313,9.873.2,2.978.525,7.258,2.38,9.527a7.155,7.155,0,0,1,1.766,4.353,6.941,6.941,0,0,1-2.565,5.44A11.334,11.334,0,0,1,1284.5,820.3c3.286-.58,6.436-1.71,8.269-3.856a4.02,4.02,0,0,0,.1-5.717c-.913-1.209-2.012-2.469-2.482-6.583a27.5,27.5,0,0,1,.022-5.182A35.176,35.176,0,0,1,1292.725,789.14Z" transform="translate(-1201.269 -730.12)" fill="#07085b"/>
          <path id="Path_24010" data-name="Path 24010" d="M1356.343,792.146a5.13,5.13,0,1,1-4.884-5.364A5.13,5.13,0,0,1,1356.343,792.146Z" transform="translate(-1284.382 -728.676)" fill="#07085b"/>
          <path id="Path_24011" data-name="Path 24011" d="M1243.543,804.865a5.13,5.13,0,1,1-4.884-5.364A5.129,5.129,0,0,1,1243.543,804.865Z" transform="translate(-1127.712 -736.448)" fill="#07085b"/>
          <path id="Path_24012" data-name="Path 24012" d="M1268.691,889.889c5.221,4.552,12.015,8.107,18.762,8.923,7.3.921,13.739-1.3,19.949-5.129-5.782,4.858-12.479,7.319-20.114,6.465A30.448,30.448,0,0,1,1268.691,889.889Z" transform="translate(-1205.334 -791.686)" fill="#07085b"/>
          <path id="Path_24013" data-name="Path 24013" d="M1357.955,761.23c-7.23-2.234-11.322-2.359-14.626-1.957-7.208.967-11.264,4.155-13.783,5.259a17.009,17.009,0,0,1,13.33-9.273C1348.978,754.526,1354.946,757.284,1357.955,761.23Z" transform="translate(-1279.554 -709.344)" fill="#07085b"/>
          <path id="Path_24014" data-name="Path 24014" d="M1201.433,771.436a17.164,17.164,0,0,1,27.227,8.756c-2.262-1.576-5.61-5.485-12.5-7.836C1213.007,771.324,1208.973,770.647,1201.433,771.436Z" transform="translate(-1100.434 -717.006)" fill="#07085b"/>
        </g>
        <path id="Path_24015" data-name="Path 24015" d="M1094.5,1021.3s51.759,6.573,64.9,17.253,76.407,167.6,76.407,167.6l-52.581,61.618-111.733.821s-83.8,45.187-136.381,2.464-25.469-191.426,4.929-223.467,84.622-31.22,84.622-31.22S1073.957,1050.872,1094.5,1021.3Z" transform="translate(-905.36 -688.858)" fill="#fe7526"/>
        <path id="Path_24016" data-name="Path 24016" d="M1518.836,1229.73a217.041,217.041,0,0,1,3.79,25.942c.447,4.353.639,8.725.89,13.1.131,4.377.233,8.755.173,13.14a172.736,172.736,0,0,1-2.158,26.223c-1.47,8.641-3.609,17.31-7.625,25.117a128.826,128.826,0,0,0,5.012-25.472c.953-8.59,1.283-17.254,1.394-25.914.179-8.663-.033-17.342-.307-26.027Q1519.543,1242.807,1518.836,1229.73Z" transform="translate(-1429.931 -819.243)" fill="#fff"/>
        <path id="Path_24017" data-name="Path 24017" d="M1017.322,1214.942c2.365,12.729,4.869,25.407,7.414,38.067,2.6,12.648,5.288,25.27,8.349,37.794,3.026,12.529,6.39,24.974,10.458,37.177a182.15,182.15,0,0,0,6.982,17.959,69.16,69.16,0,0,0,9.93,16.476c-4.755-4.44-8.253-10.068-11.413-15.737a148.188,148.188,0,0,1-7.98-17.807c-2.326-6.073-4.321-12.262-6.211-18.472-1.823-6.231-3.491-12.5-5.047-18.8-1.484-6.313-2.908-12.638-4.186-18.992-1.233-6.363-2.446-12.727-3.466-19.124C1020.037,1240.7,1018.393,1227.848,1017.322,1214.942Z" transform="translate(-773.551 -810.206)" fill="#fff"/>
        <path id="Path_24018" data-name="Path 24018" d="M1144.337,1558.994c-.329-2.6-20.075-5.505-27.334-5.881-5.5-.284-41.952-1.5-54.352-2.062l.911,3.189-.188,14.08-2.036,9.331c10.878.688,37.471,1.729,43.009,2.825,7.4,1.463,20.228,7.04,20.228,7.04s5.336-1.213-1.445-4.139a32.532,32.532,0,0,1-10.883-7.8c-.931-1.041.078-2.894.755-2.717,18.463,4.839,20.361,5.639,20.361,5.639s21.7-.122.123-5c-12.934-2.923-17.568-4.622-18.721-6.074-.49-.618.386-2.72,1.173-2.769,11.205-.691,31.317,3.281,25.808.675-4.492-2.124-18.639-4.453-24.143-5.329-.338-.054-.883-2.1.619-2.229C1128.9,1556.886,1144.642,1561.41,1144.337,1558.994Z" transform="translate(-874.556 -1015.598)" fill="#ffa279"/>
        <path id="Path_24019" data-name="Path 24019" d="M1279.311,1493.685c4.53,1.079,9.127,1.869,13.677,2.827q13.739,2.505,27.561,4.418c9.226,1.211,18.464,2.326,27.726,3.219,9.227.916,18.61,1.7,27.742,2.212l1.23.069.269,1.064a75.581,75.581,0,0,1,1.686,9.214,73.859,73.859,0,0,1,.544,9.306,59.88,59.88,0,0,1-.807,9.314,42.981,42.981,0,0,1-2.7,8.986l-.106.25-.2.133-10.148,6.807q-5.071,3.408-10.2,6.734,4.771-3.824,9.619-7.54l9.438-7.287a40.961,40.961,0,0,0,2.055-8.435,59.576,59.576,0,0,0,.434-8.937,83.831,83.831,0,0,0-.814-8.945,75.836,75.836,0,0,0-1.515-7.658c-4.381-.144-8.577-.429-12.876-.742-4.666-.345-9.329-.714-13.981-1.2-9.306-.961-18.593-2.122-27.834-3.6s-18.43-3.294-27.536-5.445c-4.536-1.159-9.078-2.277-13.543-3.685-4.5-1.265-8.912-2.842-13.307-4.406C1270.266,1491.462,1274.746,1492.732,1279.311,1493.685Z" transform="translate(-1189.449 -978.509)" fill="#fff"/>
        <path id="Path_24020" data-name="Path 24020" d="M820.418,1302.61H644.328a13.31,13.31,0,0,0-12.316,8.264l-53.919,131.609H480.737a4.929,4.929,0,0,0-4.93,4.929h0a4.93,4.93,0,0,0,4.93,4.93H761.81a13.178,13.178,0,0,0,12.023-7.784L830.512,1318.2A11.063,11.063,0,0,0,820.418,1302.61Z" transform="translate(-333.987 -863.779)" fill="#07085b"/>
        <path id="Path_24021" data-name="Path 24021" d="M1270.741,582.849s17.255.556-.853-14.035-66.724-31.7-97.886-15.245c0,0-6.231-13.249-15.24-10.085s5.858,12.277,5.858,12.277-11.5-.371-15.014,5.273c-2.595,4.172,4.449,4.354,8.3,4.166-6.549,1.114-31.653,16.969-19.054,67.589,4.479-.984,30-37.991,30-37.991s58.362,32.423,52.59,6.641c0,0,60.464,37.733,51.885,6.564C1271.326,608,1294.707,609.717,1270.741,582.849Z" transform="translate(-1039.774 -399.589)" fill="#07085b"/>
        <path id="Path_24022" data-name="Path 24022" d="M1410.3,678.455s4.834-1.7,10.031,2.426,4.622,18.618,4.622,18.618,24.809,16,22.193-51.7c-2.783-72.018-20.7,5.776-20.7,5.776Z" transform="translate(-1313.273 -444.95)" fill="#07085b"/>
        <ellipse id="Ellipse_661" data-name="Ellipse 661" cx="11.128" cy="15.22" rx="11.128" ry="15.22" transform="translate(395.868 531.194) rotate(-168.092)" fill="#fff"/>
        <g id="Group_9957" data-name="Group 9957" transform="translate(250.875 -16.87)">
          <g id="Group_9949" data-name="Group 9949" transform="translate(117.494 0)">
            <path id="Path_24032" data-name="Path 24032" d="M408.414,321.67l-3.767,28.384,20.162-14.724,61.71-31.526-47.732,4.37s-24.316,5.907-25.632,7.1S408.414,321.67,408.414,321.67Z" transform="translate(-387.278 -303.805)" fill="#e0281d"/>
            <path id="Path_24033" data-name="Path 24033" d="M404.647,304.53l99.241-.725-78.1,17.865Z" transform="translate(-404.647 -303.805)" fill="#fe3226"/>
            <path id="Path_24034" data-name="Path 24034" d="M430.651,350.226l-26-20.887,72.206-25.533Z" transform="translate(-377.612 -303.805)" fill="#fe3226"/>
          </g>
          <g id="Group_9953" data-name="Group 9953" transform="translate(0 28.609)">
            <g id="Group_9950" data-name="Group 9950" transform="translate(9.95 135.788)">
              <path id="Path_24035" data-name="Path 24035" d="M923.643,733.392l1.31-1.936a26.713,26.713,0,0,1-5.462-4.944l-1.788,1.5A29.035,29.035,0,0,0,923.643,733.392Z" transform="translate(-917.702 -726.512)" fill="#fe7526"/>
            </g>
            <g id="Group_9951" data-name="Group 9951" transform="translate(0 7.734)">
              <path id="Path_24036" data-name="Path 24036" d="M712.664,513.138l2.23-.7a65.606,65.606,0,0,1-2.659-14.548l-2.33.179A67.9,67.9,0,0,0,712.664,513.138Zm-2.681-30.345,2.325.236q.1-.962.224-1.921a60.864,60.864,0,0,1,1.237-6.531c.491-1.99,1.092-3.993,1.787-5.956l-2.2-.78c-.72,2.034-1.344,4.113-1.852,6.177a63.091,63.091,0,0,0-1.285,6.782C710.13,481.446,710.052,482.117,709.983,482.794Zm11.988-27.523a86.487,86.487,0,0,1,8.859-11.936l-1.754-1.544a88.812,88.812,0,0,0-9.1,12.259Zm73.019-5.529c1.592.392,5.645.482,8.247-1.07a12.358,12.358,0,0,0,4.684-5.267l-2.1-1.027a9.907,9.907,0,0,1-3.781,4.287,10.772,10.772,0,0,1-6.491.807,1.329,1.329,0,0,1-.235-.074c-.1-.063-.216-.14-.333-.217l-1.3,1.944c.134.089.268.177.4.263A3.063,3.063,0,0,0,794.99,449.742ZM741.48,432.9a119.273,119.273,0,0,1,11.968-8.933l-1.28-1.956a121.719,121.719,0,0,0-12.2,9.11Zm43.784,3.088,2.288-.48a21.562,21.562,0,0,1-.46-4.365,26.057,26.057,0,0,1,.782-6.3,31.376,31.376,0,0,1,1.09-3.5l-2.187-.822a33.658,33.658,0,0,0-1.172,3.762,28.431,28.431,0,0,0-.851,6.863A23.961,23.961,0,0,0,785.264,435.993Zm20.545-7.192,2.108-1.008A23.509,23.509,0,0,0,797,417.149l-.322-.154-.994,2.116.3.141A21.141,21.141,0,0,1,805.809,428.8Zm-38.772-10.48a48.346,48.346,0,0,1,9.231-2.158c1.869-.089,3.577-.108,5.223-.058l.071-2.336c-1.707-.052-3.476-.032-5.405.06-2.485.118-7.208,1.465-9.8,2.258Zm29.5-9.46a49.92,49.92,0,0,1,11.082-9.641l-1.26-1.969a52.242,52.242,0,0,0-11.6,10.093Z" transform="translate(-709.905 -397.252)" fill="#fe7526"/>
            </g>
            <g id="Group_9952" data-name="Group 9952" transform="translate(110.503)">
              <path id="Path_24037" data-name="Path 24037" d="M657.849,381.082a45.051,45.051,0,0,1,7.379-1.391l-.236-2.325a47.4,47.4,0,0,0-7.763,1.463Z" transform="translate(-657.23 -377.366)" fill="#fe7526"/>
            </g>
          </g>
        </g>
        <g id="Group_9954" data-name="Group 9954" transform="translate(262.831 31.116)">
          <path id="Path_24038" data-name="Path 24038" d="M388.634,1236.618s.86,8.481,7.553,9.068c-6.692.586-7.552,9.068-7.552,9.068s-.86-8.481-7.553-9.068C387.774,1245.1,388.634,1236.618,388.634,1236.618Z" transform="translate(-160.671 -909.568)" fill="#fe7526"/>
          <path id="Path_24213" data-name="Path 24213" d="M388.634,1236.618s.86,8.481,7.553,9.068c-6.692.586-7.552,9.068-7.552,9.068s-.86-8.481-7.553-9.068C387.774,1245.1,388.634,1236.618,388.634,1236.618Z" transform="translate(-160.671 -909.568)" fill="#fe7526"/>
          <path id="Path_24039" data-name="Path 24039" d="M1029.4,925.773s1.37,13.5,12.026,14.438c-10.656.934-12.026,14.438-12.026,14.438s-1.37-13.5-12.026-14.438C1028.033,939.277,1029.4,925.773,1029.4,925.773Z" transform="translate(-985.376 -345.649)" fill="#fe7526"/>
          <path id="Path_24040" data-name="Path 24040" d="M82.137,506.363s1.37,13.5,12.026,14.438c-10.656.935-12.026,14.438-12.026,14.438s-1.37-13.5-12.026-14.438C80.767,519.867,82.137,506.363,82.137,506.363Z" transform="translate(186.299 -480.779)" fill="#fe7526"/>
          <path id="Path_24127" data-name="Path 24127" d="M82.137,506.363s1.37,13.5,12.026,14.438c-10.656.935-12.026,14.438-12.026,14.438s-1.37-13.5-12.026-14.438C80.767,519.867,82.137,506.363,82.137,506.363Z" transform="translate(-342.807 -441.281)" fill="#fe7526"/>
          <path id="Path_24128" data-name="Path 24128" d="M82.137,506.363s1.37,13.5,12.026,14.438c-10.656.935-12.026,14.438-12.026,14.438s-1.37-13.5-12.026-14.438C80.767,519.867,82.137,506.363,82.137,506.363Z" transform="translate(-303.807 -269.778)" fill="#fe3226"/>
          <path id="Path_24041" data-name="Path 24041" d="M749.1,796.807s1.044,11.964,9.171,12.792c-8.127.828-9.171,12.792-9.171,12.792s-1.045-11.964-9.171-12.792C748.058,808.771,749.1,796.807,749.1,796.807Z" transform="translate(-626.319 -585.806)" fill="#5d21d0"/>
          <path id="Path_24042" data-name="Path 24042" d="M206.954,347.052s1.045,11.965,9.171,12.792c-8.127.828-9.171,12.792-9.171,12.792s-1.044-11.965-9.171-12.792C205.91,359.017,206.954,347.052,206.954,347.052Z" transform="translate(-498.769 261.948)" fill="#feb546"/>
          <path id="Path_24129" data-name="Path 24129" d="M206.954,347.052s1.045,11.965,9.171,12.792c-8.127.828-9.171,12.792-9.171,12.792s-1.044-11.965-9.171-12.792C205.91,359.017,206.954,347.052,206.954,347.052Z" transform="translate(-311.371 -347.052)" fill="#feb546"/>
        </g>
        <path id="Path_24043" data-name="Path 24043" d="M1555.712,623.767c0,5.032,4.526,9.111,10.109,9.111s10.11-4.079,10.11-9.111-4.526-9.111-10.11-9.111S1555.712,618.735,1555.712,623.767Z" transform="translate(-1498.415 -443.38)" fill="#fe7526"/>
      </g>
    </g>
    <g id="Group_10005" data-name="Group 10005" transform="translate(379.185 205.589)">
      <path id="Path_24115" data-name="Path 24115" d="M402.007,200.171a2.278,2.278,0,0,1-1.733-3.748l32.486-38.4a11.346,11.346,0,0,1,5.741-3.645l48.579-13.049a2.276,2.276,0,0,1,2.328,3.669l-32.485,38.4a11.339,11.339,0,0,1-5.743,3.644L402.6,200.092A2.28,2.28,0,0,1,402.007,200.171Zm83.868-55.508-46.619,12.523a8.449,8.449,0,0,0-4.275,2.714l-31.176,36.854,46.62-12.523a8.436,8.436,0,0,0,4.274-2.713Z" transform="translate(-399.734 -141.246)" fill="#fe7526"/>
      <path id="Path_24116" data-name="Path 24116" d="M429.55,212.345l-11.3-17.8,2.458-1.56,10.139,15.974,32.9-9.119,22.263-25.894-10.29-16.212,2.458-1.56,11.446,18.033-24.248,28.2Z" transform="translate(-399.475 -141.037)" fill="#fe7526"/>
      <path id="Path_24117" data-name="Path 24117" d="M445.123,224.159l-20.656-32.544,18.92-22.241,2.217,1.886-17.53,20.608L447.581,222.6Z" transform="translate(-399.388 -140.853)" fill="#fe7526"/>
      <path id="Rectangle_12601" data-name="Rectangle 12601" d="M2.623,0h1.44A2.623,2.623,0,0,1,6.687,2.623v7.522a0,0,0,0,1,0,0H0a0,0,0,0,1,0,0V2.623A2.623,2.623,0,0,1,2.623,0Z" transform="matrix(0.844, -0.536, 0.536, 0.844, 44.216, 83.956)" fill="#fe7526"/>
    </g>
    <g id="Group_10006" data-name="Group 10006" transform="translate(557.886 265.803)">
      <path id="Path_24118" data-name="Path 24118" d="M635.166,242.947l-53.831-17.571a6.111,6.111,0,0,1-3.908-7.7l11.37-34.835a6.111,6.111,0,0,1,7.7-3.908l53.831,17.571a6.112,6.112,0,0,1,3.908,7.7l-11.371,34.834A6.109,6.109,0,0,1,635.166,242.947ZM595.49,182.012a2.873,2.873,0,0,0-3.617,1.837L580.5,218.684a2.872,2.872,0,0,0,1.837,3.617l53.831,17.571a2.872,2.872,0,0,0,3.616-1.838l11.37-34.834a2.872,2.872,0,0,0-1.836-3.617Z" transform="translate(-577.125 -178.635)" fill="#fe7526"/>
      <path id="Path_24119" data-name="Path 24119" d="M604.01,215.433l3.928-12.032a2.025,2.025,0,0,1,3.462-.691l7.934,9.247a2.026,2.026,0,0,1-1.075,3.29l-11.86,2.786A2.026,2.026,0,0,1,604.01,215.433Z" transform="translate(-573.728 -175.671)" fill="#fe7526"/>
      <path id="Path_24120" data-name="Path 24120" d="M650.991,210.858,585.556,189.5l2.171-6.654a6.111,6.111,0,0,1,7.7-3.908l53.831,17.571a6.112,6.112,0,0,1,3.908,7.7Zm-61.355-23.431,59.284,19.352,1.167-3.578a2.872,2.872,0,0,0-1.836-3.617L594.42,182.012a2.873,2.873,0,0,0-3.617,1.837Z" transform="translate(-576.055 -178.635)" fill="#fe7526"/>
      <g id="Group_10000" data-name="Group 10000" transform="translate(20.509 2.375)">
        <path id="Path_24121" data-name="Path 24121" d="M600.312,192.752l-4.476-1.461-.511-10.548L599.8,182.2Z" transform="translate(-595.325 -180.743)" fill="#fe7526"/>
        <path id="Path_24122" data-name="Path 24122" d="M609.7,195.814l-4.476-1.461-.511-10.547,4.476,1.461Z" transform="translate(-594.135 -180.354)" fill="#fe7526"/>
        <path id="Path_24123" data-name="Path 24123" d="M619.079,198.877l-4.476-1.461-.511-10.547,4.476,1.461Z" transform="translate(-592.944 -179.966)" fill="#fe7526"/>
        <path id="Path_24124" data-name="Path 24124" d="M628.462,201.94l-4.476-1.461-.511-10.547,4.476,1.461Z" transform="translate(-591.754 -179.577)" fill="#fe7526"/>
        <path id="Path_24125" data-name="Path 24125" d="M637.845,205l-4.476-1.461-.511-10.547,4.476,1.461Z" transform="translate(-590.564 -179.189)" fill="#fe7526"/>
      </g>
    </g>
    <g id="Group_10007" data-name="Group 10007" transform="translate(376.793 387.288)">
      <path id="Path_24126" data-name="Path 24126" d="M424.589,318.672a3.142,3.142,0,0,1-1.626-.452l-10.24-6.153h-38.8a7.286,7.286,0,0,1-7.278-7.277V268.737a7.286,7.286,0,0,1,7.277-7.278H428.5a7.286,7.286,0,0,1,7.278,7.278V304.79a7.286,7.286,0,0,1-7.278,7.277h-1.436l.608,2.772a3.155,3.155,0,0,1-3.081,3.832Zm-50.671-53.978a4.047,4.047,0,0,0-4.042,4.043V304.79a4.047,4.047,0,0,0,4.043,4.042h39.7l10.851,6.521-1.432-6.521H428.5a4.047,4.047,0,0,0,4.043-4.042V268.737a4.048,4.048,0,0,0-4.043-4.043Z" transform="translate(-366.641 -261.459)" fill="#fe7526"/>
      <rect id="Rectangle_12602" data-name="Rectangle 12602" width="18.834" height="3.235" transform="translate(9.799 9.93)" fill="#fe7526"/>
      <rect id="Rectangle_12603" data-name="Rectangle 12603" width="47.662" height="3.235" transform="translate(9.799 18.162)" fill="#fe7526"/>
      <rect id="Rectangle_12604" data-name="Rectangle 12604" width="47.662" height="3.235" transform="translate(9.799 26.992)" fill="#fe7526"/>
      <rect id="Rectangle_12605" data-name="Rectangle 12605" width="36.387" height="3.235" transform="translate(9.799 34.787)" fill="#fe7526"/>
    </g>
    <g id="Group_10056" data-name="Group 10056">
      <ellipse id="Ellipse_670" data-name="Ellipse 670" cx="68.069" cy="61.345" rx="68.069" ry="61.345" transform="translate(548 676)" stroke="rgba(0,0,0,0)" stroke-width="1" opacity="0.257" fill="url(#linear-gradient)"/>
      <path id="Path_24212" data-name="Path 24212" d="M169.5,107.48a3.737,3.737,0,1,1-3.788,3.738A3.766,3.766,0,0,1,169.5,107.48Zm1.128-31.659c8.283.135,15.27,9.2,9.625,17.149-1.351,1.774-3.055,2.3-4.513,3.1-2.651,1.458-3.412,1.086-3.412,4.383,0,3.894-5.788,3.862-5.965,0l-.107-2.355a6.233,6.233,0,0,1,2.846-5.06c2.01-1.416,3.166-1.342,4.9-3.529,4.059-5.116-3.352-10.321-9.057-6.373-1.463,1.011-2.34,2.4-2.34,5.054.1,3.895-5.789,3.895-5.687,0a11.8,11.8,0,0,1,4.665-9.638,15.236,15.236,0,0,1,9.048-2.734Zm-.463-10.8a30.826,30.826,0,0,0-8.867,1.087C150,69.2,141.237,78.58,139.877,89.879s1.541,19.447,7,25.484l-2.627,7.447c-.905,2.569.715,4.554,3.24,3.519l9.216-3.779a31.089,31.089,0,0,0,9.322,2.634,30.187,30.187,0,0,0,7.225-59.941c-1.036-.126-2.073-.2-3.094-.224Z" transform="translate(446.456 640.99)" fill="#fe7526"/>
    </g>
  </g>
</svg>
